<svg width="25" height="49" viewBox="0 0 25 49" fill="none" xmlns="http://www.w3.org/2000/svg">
<path d="M0.0111122 24.5391C0.0749642 25.1519 0.325931 25.7302 0.729912 26.1954L18.7299 47.1954C18.9665 47.5456 19.2745 47.8418 19.6335 48.0647C19.9926 48.2876 20.3947 48.4321 20.8135 48.4888C21.2323 48.5454 21.6583 48.513 22.0637 48.3936C22.4691 48.2742 22.8447 48.0704 23.1659 47.7958C23.4871 47.5211 23.7466 47.1817 23.9275 46.7997C24.1084 46.4178 24.2065 46.002 24.2155 45.5795C24.2245 45.1569 24.1441 44.7372 23.9797 44.3479C23.8152 43.9587 23.5703 43.6085 23.2611 43.3204L6.91741 24.2579L23.2611 5.19542C23.5703 4.90734 23.8152 4.55713 23.9797 4.16784C24.1441 3.77854 24.2245 3.35891 24.2155 2.93639C24.2065 2.51387 24.1084 2.098 23.9275 1.71605C23.7466 1.33411 23.4871 0.994752 23.1659 0.720081C22.8447 0.445411 22.4691 0.241604 22.0637 0.122181C21.6583 0.00275793 21.2323 -0.0295931 20.8135 0.0270882C20.3947 0.0837694 19.9926 0.228274 19.6335 0.45116C19.2745 0.674047 18.9665 0.970258 18.7299 1.32042L0.729912 22.3204C0.468062 22.6235 0.269559 22.976 0.146107 23.357C0.0226548 23.7381 -0.0232453 24.14 0.0111122 24.5391Z" fill="black"/>
</svg>
