<svg width="25" height="49" viewBox="0 0 25 49" fill="none" xmlns="http://www.w3.org/2000/svg">
<path d="M24.2051 23.9768C24.1412 23.364 23.8903 22.7856 23.4863 22.3204L5.48626 1.32045C5.24964 0.970283 4.94171 0.674072 4.58265 0.451185C4.22359 0.228299 3.8215 0.0837942 3.4027 0.0271129C2.98391 -0.0295684 2.55786 0.00284372 2.15247 0.122267C1.74708 0.24169 1.37149 0.445436 1.05031 0.720106C0.729125 0.994776 0.469592 1.33419 0.288708 1.71614C0.107824 2.09809 0.00967237 2.5139 0.000679431 2.93641C-0.0083135 3.35893 0.0720547 3.77862 0.236523 4.16792C0.400991 4.55722 0.64585 4.90736 0.955056 5.19545L17.2988 24.2579L0.955056 43.3204C0.64585 43.6085 0.400991 43.9587 0.236523 44.348C0.0720547 44.7373 -0.0083135 45.157 0.000679431 45.5795C0.00967237 46.002 0.107824 46.4179 0.288708 46.7998C0.469592 47.1818 0.729125 47.5211 1.05031 47.7958C1.37149 48.0705 1.74708 48.2743 2.15247 48.3937C2.55786 48.5131 2.98391 48.5455 3.4027 48.4888C3.8215 48.4321 4.22359 48.2876 4.58265 48.0647C4.94171 47.8418 5.24964 47.5456 5.48626 47.1954L23.4863 26.1954C23.7481 25.8923 23.9466 25.5399 24.0701 25.1588C24.1935 24.7778 24.2394 24.3758 24.2051 23.9768Z" fill="black"/>
</svg>
