<svg width="100" height="70" viewBox="0 0 100 70" fill="none" xmlns="http://www.w3.org/2000/svg">
<path d="M93.7707 2.37608C94.0745 1.00868 92.8974 0 91.8421 0H1.92864C0.91996 0 0 0.950038 0 1.92864V1.96644C0 1.97434 0 1.98186 0 1.98996V55.0622C0 56.0163 0.81948 56.9908 1.92864 56.9908H61.3721C64.6828 64.6433 72.143 69.1617 79.8454 69.1617C90.9585 69.1617 100 60.1287 100 49.0257C100 43.5172 97.7236 38.2827 93.7707 34.5021V2.37608ZM85.8941 3.89122L46.9174 31.7548L7.94058 3.89122H85.8941ZM89.9134 5.7591V31.572C87.0918 29.9643 83.4768 28.8919 79.8454 28.8919C75.9954 28.8919 72.3137 29.967 69.1071 32.0109L62.0672 25.6663L89.9134 5.7591ZM3.85728 5.7134L31.7243 25.6354L3.85728 50.712V5.7134ZM60.1324 53.1336H6.93212L34.9376 27.9322L45.7959 35.6948C46.1311 35.9341 46.5247 36.0547 46.9174 36.0547C47.31 36.0547 47.7037 35.9341 48.0389 35.6948L58.8533 27.9639L66.0145 34.4175C61.9841 38.2045 59.7106 43.4122 59.7106 49.0257C59.7106 50.332 59.8784 51.9108 60.1324 53.1336ZM96.1427 49.0257C96.1427 58.0022 88.8322 65.3044 79.8454 65.3044C70.6816 65.3044 63.5679 57.8699 63.5679 49.0257C63.5679 43.8595 65.9505 39.1152 70.109 36.0057C72.937 33.8755 76.3036 32.7492 79.8454 32.7492C88.9611 32.7492 96.1427 40.1315 96.1427 49.0257Z" fill="black"/>
<path d="M87.3997 41.4807C86.6463 40.7274 85.4259 40.7274 84.6725 41.4807L79.8552 46.2987L75.0379 41.4807C74.2844 40.7274 73.0639 40.7274 72.3106 41.4807C71.5573 42.2343 71.5573 43.4547 72.3106 44.208L77.1281 49.0258L72.3106 53.8437C71.5573 54.597 71.5573 55.8175 72.3106 56.571C73.0639 57.3243 74.2844 57.3243 75.0379 56.571L79.8552 51.7531L84.6725 56.571C85.4259 57.3243 86.6463 57.3243 87.3997 56.571C88.1532 55.8175 88.1532 54.597 87.3997 53.8437L82.5823 49.0258L87.3997 44.208C88.1532 43.4547 88.1532 42.2342 87.3997 41.4807Z" fill="black"/>
</svg>
