<svg width="100" height="69" viewBox="0 0 100 69" fill="none" xmlns="http://www.w3.org/2000/svg">
<path d="M4.12371 50.3093L28.6598 25.3608L4.12371 6.18557V50.3093ZM82.6804 32.3711C92.3711 32.9897 100 40.8247 100 50.7216C100 60.6186 91.7526 68.866 81.6495 68.866C73.8144 68.866 67.2165 64.1237 64.5361 57.3196H0C0 38.1443 0 19.1753 0 0C27.6289 0 55.0515 0 82.6804 0V32.3711ZM63.5052 53.1959C63.5052 52.3711 63.299 51.5464 63.299 50.7216C63.299 47.6289 64.1237 44.9484 65.1546 42.4742L50.7216 27.835L42.6804 34.2268C41.8557 34.8454 40.8247 34.8454 40 34.2268L31.9588 27.835L7.01031 53.1959H63.5052ZM67.4227 38.9691C70.3093 35.6701 74.2268 33.4021 78.5567 32.5773V6.18557L54.0206 25.3608L67.4227 38.9691ZM8.04124 4.12371L41.4433 30.1031L74.6392 4.12371H8.04124ZM81.6495 36.4948C73.8144 36.4948 67.4227 42.8866 67.4227 50.7216C67.4227 58.5567 73.8144 64.7423 81.6495 64.7423C89.4845 64.7423 95.8763 58.5567 95.8763 50.7216C95.8763 42.8866 89.4845 36.4948 81.6495 36.4948Z" fill="black"/>
<path d="M75.0517 52.1649C74.2269 51.3402 74.2269 49.8969 75.0517 49.0722C75.6702 48.4536 77.1135 48.4536 77.9383 49.0722L80.0001 51.134L85.3609 45.7732C86.1857 44.9485 87.4228 44.9485 88.2475 45.7732C89.0723 46.3917 89.0723 47.835 88.2475 48.6598L81.4434 55.4639C80.6187 56.2887 79.1754 56.4948 78.3506 55.4639L75.0517 52.1649Z" fill="black"/>
</svg>
