<svg width="56" height="41" viewBox="0 0 56 41" fill="none" xmlns="http://www.w3.org/2000/svg">
<path d="M34.9995 20.265C35.0044 21.2462 34.803 22.2175 34.4083 23.1159C34.0136 24.0143 33.4344 24.8196 32.7083 25.4797C31.9822 26.1397 31.1255 26.6398 30.1937 26.9473C29.2619 27.2549 28.2758 27.3631 27.2995 27.265L23.9995 30.515C25.2737 31.0146 26.6309 31.269 27.9995 31.265C30.9169 31.265 33.7148 30.1061 35.7777 28.0432C37.8406 25.9803 38.9995 23.1824 38.9995 20.265C39.0036 18.8963 38.7491 17.5392 38.2495 16.265L34.9995 19.565C35.0112 19.7982 35.0112 20.0318 34.9995 20.265Z" fill="black"/>
<path d="M55.6596 19.155C52.9047 15.2272 49.6583 11.6683 45.9996 8.565L43.1096 11.415C46.2399 14.0392 49.0644 17.008 51.5296 20.265C48.7496 23.975 39.1096 35.605 27.9996 35.605C25.4397 35.5662 22.9147 35.0048 20.5796 33.955L17.5796 36.955C20.8022 38.6297 24.3684 39.5366 27.9996 39.605C43.2496 39.605 55.1596 22.135 55.6596 21.385C55.881 21.0553 55.9992 20.6671 55.9992 20.27C55.9992 19.8729 55.881 19.4847 55.6596 19.155Z" fill="black"/>
<path d="M8.99965 39.865L45.5996 3.27499C45.7187 3.15162 45.8531 3.04407 45.9996 2.95499C46.2274 2.5359 46.2979 2.0492 46.1984 1.58271C46.0988 1.11622 45.8359 0.700657 45.4569 0.411001C45.0779 0.121344 44.6079 -0.0233354 44.1317 0.00306831C43.6554 0.029472 43.2043 0.22522 42.8596 0.554992L39.3696 4.04499C35.895 2.08431 31.9885 1.01576 27.9996 0.934991C12.7496 0.934991 0.839645 18.405 0.339645 19.155C0.118237 19.4847 0 19.8728 0 20.27C0 20.6671 0.118237 21.0553 0.339645 21.385C3.29836 25.5967 6.82507 29.3791 10.8196 32.625L6.28965 37.155C5.95987 37.4996 5.76413 37.9508 5.73772 38.427C5.71132 38.9033 5.856 39.3733 6.14565 39.7522C6.43531 40.1312 6.85087 40.3942 7.31736 40.4937C7.78385 40.5932 8.27055 40.5228 8.68965 40.295C8.77344 40.1385 8.87769 39.9939 8.99965 39.865ZM21.2696 22.215C20.9342 21.0186 20.9232 19.7545 21.2378 18.5525C21.5524 17.3505 22.1813 16.2539 23.0599 15.3753C23.9385 14.4967 25.0351 13.8678 26.2372 13.5532C27.4392 13.2385 28.7033 13.2495 29.8996 13.585L21.2696 22.215ZM4.46964 20.315C7.24964 16.565 16.8896 4.93499 27.9996 4.93499C30.9247 4.98897 33.7996 5.70344 36.4096 7.02499L32.9996 10.465C30.9342 9.41892 28.5914 9.05122 26.3048 9.41424C24.0182 9.77727 21.9045 10.8525 20.2646 12.4868C18.6247 14.1212 17.5423 16.2313 17.1716 18.5166C16.8008 20.802 17.1606 23.146 18.1996 25.215L13.6796 29.735C10.2309 26.9702 7.13742 23.7893 4.46964 20.265V20.315Z" fill="black"/>
</svg>
