<svg width="56" height="39" viewBox="0 0 56 39" fill="none" xmlns="http://www.w3.org/2000/svg">
<path d="M55.6596 18.21C55.1596 17.47 43.2496 0 27.9996 0C12.7496 0 0.839645 17.47 0.339645 18.21C0.118237 18.5397 0 18.9279 0 19.325C0 19.7221 0.118237 20.1103 0.339645 20.44C0.839645 21.19 12.7496 38.66 27.9996 38.66C43.2496 38.66 55.1596 21.19 55.6596 20.45C55.8832 20.1193 56.0027 19.7292 56.0027 19.33C56.0027 18.9308 55.8832 18.5407 55.6596 18.21ZM27.9996 34.66C16.9196 34.66 7.25964 23.03 4.46964 19.33C7.25964 15.63 16.8896 4 27.9996 4C39.1096 4 48.7396 15.63 51.5296 19.33C48.7496 23.03 39.1096 34.66 27.9996 34.66Z" fill="black"/>
<path d="M27.9995 8.32999C25.8239 8.32999 23.6972 8.97513 21.8882 10.1838C20.0793 11.3925 18.6694 13.1105 17.8368 15.1205C17.0043 17.1305 16.7864 19.3422 17.2109 21.476C17.6353 23.6098 18.683 25.5698 20.2213 27.1082C21.7597 28.6465 23.7197 29.6942 25.8535 30.1186C27.9873 30.5431 30.199 30.3252 32.209 29.4927C34.219 28.6601 35.937 27.2502 37.1457 25.4413C38.3544 23.6323 38.9995 21.5056 38.9995 19.33C38.9995 16.4126 37.8406 13.6147 35.7777 11.5518C33.7148 9.48891 30.9169 8.32999 27.9995 8.32999ZM27.9995 26.33C26.615 26.33 25.2617 25.9194 24.1105 25.1503C22.9594 24.3811 22.0622 23.2879 21.5324 22.0088C21.0025 20.7297 20.8639 19.3222 21.134 17.9644C21.4041 16.6065 22.0708 15.3592 23.0498 14.3802C24.0287 13.4013 25.276 12.7346 26.6339 12.4645C27.9918 12.1944 29.3992 12.333 30.6783 12.8628C31.9574 13.3926 33.0506 14.2899 33.8198 15.441C34.589 16.5921 34.9995 17.9455 34.9995 19.33C34.9995 21.1865 34.262 22.967 32.9493 24.2797C31.6365 25.5925 29.856 26.33 27.9995 26.33Z" fill="black"/>
</svg>
