
<svg width="90" height="60" viewBox="0 0 90 60" fill="none" xmlns="http://www.w3.org/2000/svg">
<path d="M0 5C0 2.2386 2.23858 0 5 0H85C87.7614 0 90 2.2386 90 5C90 7.7614 87.7614 10 85 10H5C2.23858 10 0 7.7614 0 5Z" fill="black"/>
<path d="M0 30C0 27.2386 2.23858 25 5 25H85C87.7614 25 90 27.2386 90 30C90 32.7614 87.7614 35 85 35H5C2.23858 35 0 32.7614 0 30Z" fill="black"/>
<path d="M5 50C2.23858 50 0 52.2386 0 55C0 57.7614 2.23858 60 5 60H85C87.7614 60 90 57.7614 90 55C90 52.2386 87.7614 50 85 50H5Z" fill="black"/>
</svg>
