<svg width="20" height="20" viewBox="0 0 20 20" fill="none" xmlns="http://www.w3.org/2000/svg">
<path d="M12.0194 9.99936L19.5804 2.43836C19.713 2.30572 19.8182 2.14826 19.89 1.97496C19.9618 1.80167 19.9987 1.61593 19.9987 1.42836C19.9987 1.24078 19.9618 1.05504 19.89 0.881748C19.8182 0.708452 19.713 0.550991 19.5804 0.418356C19.4477 0.285721 19.2903 0.180509 19.117 0.108727C18.9437 0.0369456 18.7579 -1.97642e-09 18.5704 0C18.3828 1.97642e-09 18.197 0.0369456 18.0237 0.108727C17.8505 0.180509 17.693 0.285721 17.5604 0.418356L9.99936 7.97936L2.43836 0.418356C2.17049 0.150487 1.80718 0 1.42836 0C1.04953 0 0.686224 0.150487 0.418356 0.418356C0.150487 0.686224 0 1.04953 0 1.42836C0 1.80718 0.150487 2.17049 0.418356 2.43836L7.97936 9.99936L0.418356 17.5604C0.285721 17.693 0.180509 17.8505 0.108727 18.0237C0.0369456 18.197 1.97642e-09 18.3828 0 18.5704C-1.97642e-09 18.7579 0.0369456 18.9437 0.108727 19.117C0.180509 19.2903 0.285721 19.4477 0.418356 19.5804C0.550991 19.713 0.708452 19.8182 0.881748 19.89C1.05504 19.9618 1.24078 19.9987 1.42836 19.9987C1.61593 19.9987 1.80167 19.9618 1.97496 19.89C2.14826 19.8182 2.30572 19.713 2.43836 19.5804L9.99936 12.0194L17.5604 19.5804C17.8282 19.8482 18.1915 19.9987 18.5704 19.9987C18.9492 19.9987 19.3125 19.8482 19.5804 19.5804C19.8482 19.3125 19.9987 18.9492 19.9987 18.5704C19.9987 18.1915 19.8482 17.8282 19.5804 17.5604L12.0194 9.99936Z" fill="black"/>
</svg>
