<svg width="22" height="22" viewBox="0 0 22 22" fill="none" xmlns="http://www.w3.org/2000/svg">
<path d="M18.7526 15.9926H7.18263L6.99263 14.4126L19.1026 13.4626C19.9226 13.3926 20.5926 12.7626 20.7026 11.9426L20.8426 10.8426C20.8926 10.4326 20.6026 10.0526 20.1926 10.0026C19.7726 9.95263 19.4026 10.2426 19.3526 10.6526L19.2126 11.7526C19.2026 11.8726 19.1026 11.9626 18.9826 11.9626L6.81263 12.9226L5.94263 5.50263H10.7426C11.1526 5.50263 11.4926 5.16263 11.4926 4.75263C11.4926 4.34263 11.1526 4.00263 10.7426 4.00263H5.76263L5.65263 3.04263C5.52263 1.91263 4.69263 0.972632 3.59263 0.692632L0.932632 0.0226317C0.532632 -0.0773683 0.122632 0.162632 0.0226317 0.572632C-0.0773683 0.972632 0.162632 1.38263 0.572632 1.48263L3.23263 2.15263C3.73263 2.27263 4.11263 2.70263 4.17263 3.22263L5.70263 16.2226C4.71263 16.6326 4.00263 17.6226 4.00263 18.7626C4.00263 20.2826 5.23263 21.5126 6.75263 21.5126C8.27263 21.5126 9.50263 20.2826 9.50263 18.7626C9.50263 18.3126 9.38263 17.8926 9.19263 17.5126H16.3226C16.1326 17.8926 16.0126 18.3126 16.0126 18.7626C16.0126 20.2826 17.2426 21.5126 18.7626 21.5126C20.2826 21.5126 21.5126 20.2826 21.5126 18.7626C21.5126 17.2426 20.2826 16.0126 18.7626 16.0126L18.7526 15.9926ZM8.00263 18.7426C8.00263 19.4326 7.44263 19.9926 6.75263 19.9926C6.06263 19.9926 5.50263 19.4326 5.50263 18.7426C5.50263 18.0526 6.06263 17.4926 6.75263 17.4926C7.44263 17.4926 8.00263 18.0526 8.00263 18.7426ZM18.7526 19.9926C18.0626 19.9926 17.5026 19.4326 17.5026 18.7426C17.5026 18.0526 18.0626 17.4926 18.7526 17.4926C19.4426 17.4926 20.0026 18.0526 20.0026 18.7426C20.0026 19.4326 19.4426 19.9926 18.7526 19.9926ZM14.7226 6.71263L16.6926 4.74263L14.7226 2.77263C14.4326 2.48263 14.4326 2.00263 14.7226 1.71263C15.0126 1.42263 15.4926 1.42263 15.7826 1.71263L17.7526 3.68263L19.7226 1.71263C20.0126 1.42263 20.4926 1.42263 20.7826 1.71263C21.0726 2.00263 21.0726 2.48263 20.7826 2.77263L18.8126 4.74263L20.7826 6.71263C21.0726 7.00263 21.0726 7.48263 20.7826 7.77263C20.6326 7.92263 20.4426 7.99263 20.2526 7.99263C20.0626 7.99263 19.8726 7.92263 19.7226 7.77263L17.7526 5.80263L15.7826 7.77263C15.6326 7.92263 15.4426 7.99263 15.2526 7.99263C15.0626 7.99263 14.8726 7.92263 14.7226 7.77263C14.4326 7.48263 14.4326 7.00263 14.7226 6.71263Z" fill="black"/>
</svg>
