<svg width="33" height="28" viewBox="0 0 33 28" fill="none" xmlns="http://www.w3.org/2000/svg">
<path d="M31.8597 3.96131C31.6227 3.65659 31.2503 3.4873 30.844 3.4873H7.07618L6.66989 1.08343C6.56832 0.440145 5.99274 0 5.34946 0H1.32044C0.575574 0 0 0.609432 0 1.32044C0 2.03144 0.609432 2.64087 1.32044 2.64087H4.19831L7.68561 22.4474C7.78718 23.0907 8.36276 23.5308 9.00605 23.5308H10.5973C9.85248 23.9371 9.34462 24.7158 9.34462 25.63C9.34462 26.9504 10.3942 28 11.7146 28C13.0351 28 14.0846 26.9504 14.0846 25.63C14.0846 24.7158 13.5768 23.9371 12.8319 23.5308H23.3277C22.5828 23.9371 22.075 24.7158 22.075 25.63C22.075 26.9504 23.1245 28 24.445 28C25.7654 28 26.815 26.9504 26.815 25.63C26.815 24.7158 26.3071 23.9371 25.5623 23.5308H26.9504C27.6953 23.5308 28.2709 22.9214 28.2709 22.2104C28.2709 21.4655 27.6614 20.89 26.9504 20.89H10.0895L9.68319 18.6215H28.6433C29.2866 18.6215 29.8283 18.1475 29.9637 17.5381L32.1306 5.0786C32.1983 4.67231 32.0967 4.26602 31.8597 3.96131Z" fill="#5B6DF1"/>
</svg>
