<svg width="22" height="22" viewBox="0 0 22 22" fill="none" xmlns="http://www.w3.org/2000/svg">
<path d="M13.61 21.4958C12.95 21.4958 12.33 21.0558 11.77 20.6458C11.45 20.4158 10.96 20.0558 10.74 20.0558C10.52 20.0558 10.04 20.4058 9.71 20.6458C9.02 21.1358 8.25 21.6958 7.41 21.4158C6.56 21.1258 6.24 20.1858 5.97 19.3558C5.84 18.9758 5.65 18.3958 5.48 18.2758C5.32 18.1558 4.74 18.1358 4.36 18.1258C3.52 18.1058 2.56 18.0758 2.04 17.3258C1.54 16.6058 1.8 15.6658 2.04 14.8458C2.16 14.4258 2.32 13.8458 2.25 13.6158C2.19 13.4158 1.75 13.0658 1.43 12.8158C0.76 12.2758 0 11.6658 0 10.7458C0 9.82576 0.76 9.21576 1.43 8.67576C1.75 8.42576 2.19 8.07576 2.25 7.87576C2.32 7.64576 2.16 7.06576 2.04 6.64576C1.81 5.82576 1.54 4.88576 2.04 4.16576C2.56 3.41576 3.52 3.39576 4.36 3.36576C4.74 3.36576 5.32 3.33576 5.48 3.21576C5.64 3.09576 5.84 2.51576 5.97 2.13576C6.25 1.30576 6.56 0.365762 7.41 0.0757618C8.25 -0.204238 9.03 0.345762 9.71 0.845762C10.03 1.07576 10.52 1.43576 10.74 1.43576C10.96 1.43576 11.44 1.08576 11.77 0.845762C12.46 0.355762 13.24 -0.204238 14.07 0.0757618C14.92 0.365762 15.24 1.30576 15.51 2.13576C15.64 2.51576 15.83 3.09576 16 3.21576C16.16 3.33576 16.74 3.35576 17.12 3.36576C17.96 3.38576 18.92 3.41576 19.44 4.16576C19.94 4.88576 19.68 5.82576 19.44 6.64576C19.32 7.06576 19.16 7.64576 19.23 7.87576C19.29 8.07576 19.73 8.42576 20.05 8.67576C20.72 9.21576 21.48 9.82576 21.48 10.7458C21.48 11.6658 20.72 12.2758 20.05 12.8158C19.73 13.0658 19.29 13.4158 19.23 13.6158C19.16 13.8458 19.32 14.4258 19.44 14.8458C19.67 15.6658 19.94 16.6058 19.44 17.3258C18.92 18.0758 17.96 18.0958 17.12 18.1258C16.74 18.1258 16.16 18.1558 16 18.2758C15.84 18.3958 15.64 18.9758 15.51 19.3558C15.23 20.1858 14.92 21.1258 14.07 21.4158C13.91 21.4658 13.76 21.4958 13.6 21.4958H13.61ZM7.89 1.49576C7.75 1.58576 7.52 2.24576 7.4 2.60576C7.17 3.29576 6.93 4.00576 6.4 4.40576C5.85 4.82576 5.12 4.84576 4.41 4.86576C4.08 4.86576 3.39 4.89576 3.28 5.01576C3.19 5.17576 3.38 5.86576 3.49 6.23576C3.69 6.93576 3.89 7.66576 3.69 8.31576C3.49 8.95576 2.93 9.40576 2.38 9.84576C2.08 10.0858 1.51 10.5458 1.51 10.7458C1.51 10.9458 2.08 11.3958 2.38 11.6458C2.93 12.0858 3.5 12.5358 3.69 13.1758C3.89 13.8258 3.69 14.5558 3.49 15.2558C3.39 15.6258 3.19 16.3158 3.28 16.4758C3.39 16.6058 4.08 16.6158 4.41 16.6258C5.12 16.6458 5.85 16.6658 6.4 17.0858C6.93 17.4958 7.17 18.1958 7.4 18.8858C7.52 19.2458 7.74 19.9058 7.91 20.0058C8.06 20.0058 8.57 19.6358 8.85 19.4358C9.44 19.0058 10.06 18.5658 10.75 18.5658C11.44 18.5658 12.06 19.0058 12.65 19.4358C12.93 19.6358 13.49 20.0058 13.61 19.9958C13.75 19.9058 13.98 19.2458 14.1 18.8858C14.33 18.1958 14.57 17.4858 15.1 17.0858C15.65 16.6658 16.38 16.6458 17.09 16.6258C17.42 16.6258 18.11 16.5958 18.22 16.4758C18.31 16.3158 18.12 15.6258 18.01 15.2558C17.81 14.5558 17.61 13.8258 17.81 13.1758C18.01 12.5358 18.57 12.0858 19.12 11.6458C19.42 11.4058 19.99 10.9458 19.99 10.7458C19.99 10.5458 19.42 10.0958 19.12 9.84576C18.57 9.40576 18 8.95576 17.81 8.31576C17.61 7.66576 17.81 6.93576 18.01 6.23576C18.11 5.86576 18.31 5.17576 18.22 5.01576C18.11 4.88576 17.42 4.87576 17.09 4.86576C16.38 4.84576 15.65 4.82576 15.1 4.40576C14.57 3.99576 14.33 3.29576 14.1 2.60576C13.98 2.24576 13.76 1.58576 13.59 1.48576C13.44 1.48576 12.93 1.85576 12.65 2.05576C12.06 2.48576 11.44 2.92576 10.75 2.92576C10.06 2.92576 9.44 2.48576 8.85 2.05576C8.58 1.85576 8.07 1.49576 7.89 1.49576Z" fill="black"/>
<path d="M9.75 13.4958C9.56 13.4958 9.37 13.4258 9.22 13.2758L7.22 11.2758C6.93 10.9858 6.93 10.5058 7.22 10.2158C7.51 9.92576 7.99 9.92576 8.28 10.2158L9.75 11.6858L13.22 8.21576C13.51 7.92576 13.99 7.92576 14.28 8.21576C14.57 8.50576 14.57 8.98576 14.28 9.27576L10.28 13.2758C10.13 13.4258 9.94 13.4958 9.75 13.4958Z" fill="black"/>
</svg>
