<svg width="300" height="300" viewBox="0 0 300 300" fill="none" xmlns="http://www.w3.org/2000/svg">
<path d="M159.25 210.6H142.75C139.077 210.6 136.1 213.577 136.1 217.25V233.75C136.1 237.423 139.077 240.4 142.75 240.4H159.25C162.923 240.4 165.9 237.423 165.9 233.75V217.25C165.9 213.577 162.923 210.6 159.25 210.6Z" fill="black"/>
<path d="M150.11 4.03666e-05C130.393 -0.0144239 110.867 3.85841 92.6483 11.397C74.4296 18.9356 57.8759 29.9921 43.934 43.934C29.9921 57.8759 18.9356 74.4296 11.397 92.6483C3.85841 110.867 -0.0144239 130.393 4.03666e-05 150.11C0.0600404 231.65 68.35 299.94 149.89 300C169.607 300.014 189.133 296.142 207.352 288.603C225.57 281.064 242.124 270.008 256.066 256.066C270.008 242.124 281.064 225.57 288.603 207.352C296.142 189.133 300.014 169.607 300 149.89C299.94 68.35 231.65 0.0600404 150.11 4.03666e-05ZM238.69 235.72C238.2 236.22 237.69 236.72 237.21 237.21C214.278 260.536 183.019 273.797 150.31 274.075C117.601 274.354 86.1208 261.627 62.795 238.695C39.4693 215.763 26.2085 184.504 25.93 151.795C25.6515 119.086 38.3781 87.6058 61.31 64.28C61.8 63.78 62.31 63.28 62.79 62.79C85.722 39.4643 116.981 26.2035 149.69 25.925C182.399 25.6465 213.879 38.3731 237.205 61.305C260.531 84.237 273.792 115.496 274.07 148.205C274.349 180.914 261.622 212.394 238.69 235.72Z" fill="black"/>
<path d="M210.42 125.13C210.42 125.5 210.36 125.86 210.31 126.21C210.26 126.56 210.21 127.07 210.14 127.5C210.14 127.78 210.06 128.06 210.01 128.33C209.96 128.6 209.89 129.01 209.82 129.33C209.75 129.65 209.65 130.19 209.55 130.61C209.49 130.83 209.44 131.05 209.38 131.26C209.32 131.47 209.24 131.85 209.15 132.13C209.06 132.41 208.94 132.89 208.81 133.27C208.68 133.65 208.57 134.03 208.44 134.4C208.428 134.448 208.411 134.495 208.39 134.54C208.27 134.89 208.14 135.23 208.01 135.54L207.83 135.99C207.74 136.22 207.65 136.45 207.55 136.67C207.45 136.89 207.31 137.23 207.18 137.5C206.95 138.03 206.7 138.5 206.43 139.06C206.29 139.35 206.13 139.65 205.97 139.94C205.81 140.23 205.64 140.54 205.47 140.84C205.3 141.14 205.12 141.45 204.93 141.75C204.74 142.05 204.57 142.34 204.38 142.63C204.19 142.92 204.01 143.2 203.82 143.48C203.24 144.35 202.62 145.2 201.98 146.03C201.7 146.4 201.41 146.76 201.12 147.12C200.83 147.48 200.42 147.97 200.06 148.38C199.56 148.96 199.06 149.53 198.54 150.09C193.34 155.71 187.2 160.54 181.65 165.66C181.12 166.14 180.65 166.66 180.09 167.13C179.777 167.423 179.467 167.723 179.16 168.03C178.85 168.33 178.55 168.63 178.25 168.94L177.75 169.45C177.55 169.65 177.36 169.84 177.18 170.04C176.56 170.707 175.96 171.373 175.38 172.04C175.09 172.37 174.8 172.71 174.52 173.04C174.24 173.37 173.96 173.72 173.69 174.04C173.42 174.36 173.01 174.91 172.69 175.35C172.51 175.59 172.33 175.84 172.17 176.09C172.01 176.34 171.82 176.59 171.66 176.84C171.5 177.09 171.33 177.33 171.17 177.58C171.01 177.83 170.77 178.21 170.58 178.58C170.39 178.95 170.22 179.18 170.06 179.49C169.9 179.8 169.78 179.99 169.65 180.25C169.52 180.51 169.38 180.76 169.26 181.01V181.07C169.08 181.43 168.9 181.8 168.74 182.18C168.42 182.89 168.12 183.62 167.85 184.37C167.69 184.83 167.53 185.29 167.39 185.77V185.87C167.18 186.53 167 187.19 166.85 187.87C166.7 188.55 166.58 189.02 166.48 189.62C166.48 189.92 166.38 190.22 166.34 190.52C166.34 190.67 166.29 190.83 166.27 190.98C166.089 192.281 165.441 193.473 164.448 194.333C163.455 195.194 162.184 195.665 160.87 195.66H141.87C141.12 195.658 140.378 195.501 139.691 195.2C139.004 194.898 138.386 194.458 137.876 193.908C137.367 193.357 136.976 192.707 136.729 191.998C136.482 191.29 136.384 190.538 136.44 189.79C136.435 189.723 136.435 189.657 136.44 189.59C136.44 189.11 136.53 188.64 136.58 188.18C136.59 188.012 136.61 187.845 136.64 187.68C136.64 187.39 136.7 187.1 136.74 186.82C136.74 186.39 136.85 185.98 136.91 185.57C136.91 185.42 136.96 185.28 136.98 185.14C137.06 184.64 137.14 184.14 137.24 183.67C137.235 183.607 137.235 183.543 137.24 183.48C137.327 182.987 137.427 182.507 137.54 182.04C137.54 181.85 137.62 181.66 137.66 181.48C137.753 181.06 137.853 180.65 137.96 180.25C137.96 180.11 138.03 179.97 138.07 179.83C138.16 179.46 138.26 179.1 138.38 178.74C138.419 178.556 138.473 178.376 138.54 178.2C138.65 177.79 138.78 177.38 138.92 176.99C138.951 176.867 138.991 176.747 139.04 176.63C139.16 176.25 139.3 175.87 139.44 175.5C139.478 175.377 139.525 175.256 139.58 175.14C139.71 174.75 139.86 174.37 140.03 173.99C140.071 173.863 140.121 173.74 140.18 173.62C140.3 173.32 140.43 173.02 140.56 172.73C140.69 172.44 140.76 172.27 140.87 172.05C141.17 171.41 141.48 170.78 141.8 170.17C141.95 169.88 142.1 169.59 142.26 169.31L142.4 169.06C142.6 168.7 142.8 168.36 143.01 168.06C143.22 167.76 143.5 167.25 143.75 166.86C144.23 166.1 144.75 165.36 145.26 164.65C145.54 164.26 145.82 163.88 146.11 163.51C146.95 162.42 147.81 161.39 148.72 160.4L149.24 159.83C150.26 158.73 151.31 157.68 152.39 156.68L153.34 155.81C153.98 155.23 154.62 154.67 155.27 154.13L156.27 153.31L157.27 152.52L158.27 151.73L159.27 150.96L160.9 149.69L162.9 148.13L163 148C163.6 147.55 164.19 147.1 164.77 146.64C165.62 145.98 166.46 145.33 167.27 144.64L167.66 144.33L168.6 143.56C168.91 143.31 169.21 143.05 169.51 142.79C170.11 142.28 170.7 141.79 171.27 141.21C171.84 140.63 172.27 140.28 172.72 139.81L172.93 139.59C173.21 139.31 173.47 139.04 173.72 138.76C173.97 138.48 174.23 138.2 174.47 137.91C174.88 137.44 175.27 136.91 175.65 136.47C175.82 136.26 175.97 136.05 176.12 135.83L176.63 135.12C176.81 134.86 176.98 134.59 177.15 134.32C177.32 134.05 177.54 133.68 177.72 133.32C177.9 132.96 178.08 132.67 178.25 132.32C178.42 131.97 178.5 131.83 178.61 131.58C178.82 131.13 179.02 130.66 179.21 130.18C179.31 129.92 179.41 129.66 179.5 129.39C179.65 128.96 179.78 128.52 179.91 128.07C180.04 127.62 180.11 127.31 180.2 126.91C180.29 126.51 180.37 126.13 180.44 125.72L180.53 125.12C180.53 124.9 180.6 124.67 180.62 124.44C180.62 124.04 180.71 123.63 180.74 123.22C181.021 118.303 180.098 113.392 178.053 108.912C176.007 104.432 172.9 100.518 169 97.51C165.664 94.8952 161.786 93.0573 157.65 92.13C150.404 90.493 142.808 91.609 136.34 95.261C129.871 98.9131 124.992 104.84 122.65 111.89C121.797 114.571 120.12 116.914 117.858 118.586C115.595 120.257 112.863 121.172 110.05 121.2H107C104.89 121.198 102.809 120.704 100.924 119.757C99.0379 118.811 97.3989 117.437 96.1369 115.746C94.8749 114.055 94.0247 112.093 93.6537 110.016C93.2828 107.938 93.4013 105.803 94 103.78C98.25 89.8969 107.416 78.0398 119.781 70.4298C132.146 62.8198 146.861 59.9791 161.17 62.44C186.59 66.62 206.38 88.2 210.06 113.69C210.629 117.476 210.749 121.316 210.42 125.13Z" fill="black"/>
</svg>
