<svg width="84" height="98" viewBox="0 0 84 98" fill="none" xmlns="http://www.w3.org/2000/svg">
<path d="M38.478 97.72C37.5588 97.9882 36.5955 98.0713 35.644 97.9647C34.6924 97.858 33.7714 97.5636 32.9344 97.0986C32.0973 96.6336 31.3608 96.0072 30.7676 95.2556C30.1743 94.504 29.736 93.6421 29.478 92.72L27.588 85.94H17.308C15.9948 85.94 14.6945 85.6813 13.4812 85.1788C12.268 84.6762 11.1656 83.9397 10.237 83.0111C9.30839 82.0825 8.5718 80.9801 8.06925 79.7668C7.5667 78.5536 7.30805 77.2532 7.30805 75.94V65.79L4.65805 64.91C3.757 64.611 2.92856 64.1266 2.22605 63.488C1.52354 62.8494 0.962536 62.0708 0.579145 61.2022C0.195754 60.3337 -0.00152434 59.3946 8.86868e-06 58.4452C0.00154208 57.4958 0.201853 56.5573 0.588047 55.69L6.20805 43.07C6.93446 41.4468 7.30933 39.6883 7.30805 37.91C7.31513 29.9968 9.79245 22.2831 14.3943 15.8456C18.9962 9.40798 25.4929 4.56764 32.978 2C33.3514 4.56 33.6847 7.17334 33.978 9.84C28.3994 12.0993 23.6202 15.9693 20.2504 20.9563C16.8806 25.9433 15.073 31.8212 15.058 37.84C15.0627 40.6965 14.4629 43.5217 13.298 46.13L8.03805 57.92L11.248 59C12.3487 59.3624 13.3069 60.0632 13.9857 61.0024C14.6645 61.9416 15.0293 63.0712 15.028 64.23V76C15.028 76.2994 15.087 76.5959 15.2016 76.8725C15.3162 77.1491 15.4841 77.4005 15.6958 77.6122C15.9076 77.8239 16.1589 77.9919 16.4355 78.1064C16.7122 78.221 17.0086 78.28 17.308 78.28H33.378L36.788 90.28L71.218 80.45L65.5181 60.45L67.048 58.86C70.1466 55.6446 72.4931 51.7817 73.9182 47.5499C75.3433 43.318 75.8116 38.8226 75.2893 34.3879C74.767 29.9531 73.2672 25.6895 70.8979 21.9046C68.5285 18.1196 65.3488 14.9075 61.588 12.5C61.348 9.38 61.048 6.31334 60.688 3.3C66.0666 5.69689 70.8123 9.31469 74.5483 13.8661C78.2843 18.4176 80.9078 23.7774 82.2104 29.5199C83.5131 35.2625 83.459 41.2296 82.0526 46.9476C80.6461 52.6656 77.9259 57.977 74.108 62.46L78.7381 78.7C79.0048 79.6192 79.0869 80.5822 78.9797 81.5333C78.8724 82.4844 78.5778 83.4049 78.113 84.2416C77.6482 85.0783 77.0222 85.8147 76.2713 86.4083C75.5205 87.0019 74.6595 87.4409 73.7381 87.7L38.478 97.72ZM32.408 60.36C31.3622 59.7303 30.1398 59.4582 28.9256 59.585C27.7114 59.7117 26.5715 60.2303 25.6783 61.0625C24.785 61.8946 24.187 62.9949 23.9747 64.1971C23.7624 65.3993 23.9473 66.6379 24.5014 67.7256C25.0556 68.8134 25.9488 69.6912 27.0461 70.2262C28.1434 70.7612 29.3851 70.9243 30.5834 70.6909C31.7816 70.4576 32.8713 69.8404 33.6877 68.9327C34.504 68.025 35.0026 66.8762 35.108 65.66C39.678 62.869 43.3905 58.8728 45.838 54.11C48.7042 54.6386 51.665 54.1669 54.2251 52.7738C56.7851 51.3807 58.7891 49.1508 59.9018 46.457C61.0144 43.7632 61.1682 40.769 60.3375 37.9754C59.5068 35.1817 57.7418 32.7581 55.338 31.11C55.3289 21.0006 54.6608 10.9025 53.338 0.880003C51.5562 0.488292 49.748 0.227595 47.928 0.100003C47.0347 0.033336 46.138 2.62531e-06 45.238 2.62531e-06C43.4247 -0.000665822 41.6136 0.126315 39.818 0.380003C41.2679 10.3417 42.0131 20.3934 42.048 30.46C40.1995 31.4743 38.6324 32.9326 37.4879 34.7035C36.3433 36.4743 35.6573 38.5021 35.4916 40.6041C35.326 42.7061 35.6859 44.8163 36.5389 46.7446C37.3919 48.6729 38.7112 50.3586 40.378 51.65C38.5432 55.2104 35.792 58.2171 32.408 60.36Z" fill="black"/>
</svg>
