<svg width="80" height="82" viewBox="0 0 80 82" fill="none" xmlns="http://www.w3.org/2000/svg">
<path d="M53.2 81.4C61.3 81.4 67.9 75 68.2 66.9L69.8 18.5H76.3C78 18.5 79.3 17.2 79.3 15.5C79.3 13.8 78 12.5 76.3 12.5H56.3V9C56.3 4 52.3 0 47.3 0H32.1C27.1 0 23.1 4 23.1 9V12.5H3C1.3 12.5 0 13.8 0 15.5C0 17.2 1.3 18.5 3 18.5H9.5L11.1 66.9C11.4 75 18 81.4 26.1 81.4H53.2ZM29.1 9C29.1 7.3 30.4 6 32.1 6H47.3C49 6 50.3 7.3 50.3 9V12.5H29.1V9ZM17.2 66.7L15.6 18.5H63.8L62.2 66.7C62 71.6 58.1 75.4 53.2 75.4H26.2C21.3 75.4 17.3 71.6 17.2 66.7Z" fill="#E40303"/>
<path d="M39.7 64.6C41.4 64.6 42.7 63.3 42.7 61.6V31.7C42.7 30 41.4 28.7 39.7 28.7C38 28.7 36.7 30 36.7 31.7V61.6C36.7 63.3 38 64.6 39.7 64.6Z" fill="#E40303"/>
<path d="M30.7 61.6V31.7C30.7 30 29.4 28.7 27.7 28.7C26 28.7 24.7 30 24.7 31.7V61.6C24.7 63.3 26 64.6 27.7 64.6C29.4 64.6 30.7 63.3 30.7 61.6Z" fill="#E40303"/>
<path d="M51.7 64.6C53.4 64.6 54.7 63.3 54.7 61.6V31.7C54.7 30 53.4 28.7 51.7 28.7C50 28.7 48.7 30 48.7 31.7V61.6C48.7 63.3 50 64.6 51.7 64.6Z" fill="#E40303"/>
</svg>
